<?xml version="1.0" encoding="utf-8"?><!-- Uploaded to: SVG Repo, www.svgrepo.com, Generator: SVG Repo Mixer Tools -->
<svg width="800px" height="800px" viewBox="0 0 24 24" fill="none" xmlns="http://www.w3.org/2000/svg">
<path fill-rule="evenodd" clip-rule="evenodd" d="M13 3C13 2.44772 12.5523 2 12 2C11.4477 2 11 2.44772 11 3V6.52779C10.1738 5.78835 9.14158 5.27448 8 5.08296V5C8 4.44772 7.55229 4 7 4C6.44772 4 6 4.44772 6 5V7V10V12V13C6 13.7083 6.12275 14.388 6.34813 15.0189L8.02624 13.4606C8.00891 13.3095 8 13.1558 8 13V12.126C8.36017 12.2187 8.70071 12.3603 9.01411 12.5433L10.5227 11.1425C9.78956 10.6099 8.93115 10.2392 8 10.083V7.12602C9.63464 7.54674 10.8649 8.97478 10.9896 10.709L17.6391 4.53441C17.6909 4.48628 17.7446 4.44143 17.8 4.39984C17.6175 4.15704 17.3271 4 17 4C16.4477 4 16 4.44772 16 5V5.08296C14.8584 5.27448 13.8262 5.78835 13 6.52779V3ZM11 18.917C10.2346 18.7886 9.51825 18.5153 8.88027 18.1262L10.4352 16.6823C10.617 16.7597 10.8056 16.824 11 16.874V16.1579L13.9245 13.4423C13.3472 14.1356 13 15.0273 13 16V16.874C14.7252 16.4299 16 14.8638 16 13V12.126C15.5182 12.25 15.0715 12.4615 14.678 12.7426L18 9.65785V10V12V13C18 15.973 15.8377 18.441 13 18.917V21C13 21.5523 12.5523 22 12 22C11.4477 22 11 21.5523 11 21V18.917ZM19.6805 6.73279C20.0852 6.35699 20.1086 5.72426 19.7328 5.31955C19.357 4.91484 18.7243 4.8914 18.3196 5.26721L4.31955 18.2672C3.91484 18.643 3.89141 19.2757 4.26721 19.6805C4.64301 20.0852 5.27574 20.1086 5.68046 19.7328L19.6805 6.73279Z" fill="#713f12"/>
</svg>
