<?xml version="1.0" encoding="iso-8859-1"?>
<!-- Uploaded to: SVG Repo, www.svgrepo.com, Generator: SVG Repo Mixer Tools -->
<!DOCTYPE svg PUBLIC "-//W3C//DTD SVG 1.1//EN" "http://www.w3.org/Graphics/SVG/1.1/DTD/svg11.dtd">
<svg fill="#000000" height="800px" width="800px" version="1.1" id="Capa_1" xmlns="http://www.w3.org/2000/svg" xmlns:xlink="http://www.w3.org/1999/xlink" 
	 viewBox="0 0 59.21 59.21" xml:space="preserve">
<g>
	<path d="M58.565,28.357c-0.447-0.478-1.077-0.752-1.729-0.752h-0.194c0.879-1.513,1.357-3.231,1.357-5
		c0-3.989-2.386-7.58-6.008-9.158C51.906,8.007,47.46,3.605,42,3.605c-5.459,0-9.904,4.399-9.992,9.837
		c-0.204-0.048-0.414-0.076-0.628-0.076c-0.889,0-1.726,0.434-2.237,1.16l-0.249,0.354c-0.205,0.29-0.59,0.395-0.912,0.245
		l-0.392-0.182c-0.807-0.376-1.748-0.332-2.519,0.112s-1.278,1.239-1.358,2.124l-0.039,0.431c-0.014,0.154-0.082,0.369-0.171,0.599
		c-0.229-0.109-0.393-0.333-0.417-0.6l-0.039-0.429c-0.076-0.84-0.525-1.536-1.168-1.977l3.147-4.466
		c0.613-0.871,0.851-1.932,0.667-2.986c-0.183-1.056-0.763-1.975-1.633-2.588c-1.804-1.27-4.304-0.838-5.574,0.966l-5.76,8.175
		c-0.192,0.273-0.334,0.569-0.451,0.873c-0.093,0.004-0.192-0.005-0.294-0.052l-0.392-0.182c-0.807-0.374-1.75-0.331-2.519,0.113
		c-0.77,0.444-1.277,1.238-1.357,2.123l-0.039,0.431c-0.032,0.355-0.313,0.636-0.668,0.668l-0.43,0.039
		c-0.885,0.08-1.68,0.588-2.124,1.357c-0.445,0.771-0.487,1.712-0.113,2.521l0.181,0.39c0.15,0.324,0.047,0.708-0.245,0.913
		l-0.353,0.249c-0.727,0.513-1.161,1.35-1.161,2.239c0,0.593,0.208,1.153,0.552,1.618H2.373c-0.652,0-1.282,0.274-1.729,0.752
		c-0.451,0.482-0.684,1.138-0.639,1.797C0.597,38.9,6.161,43.292,14.334,47.195c0.912,0.436,1.665,1.16,2.122,2.042
		c0.446,0.862,0.375,1.974-0.194,2.92c-0.429,0.712-0.441,1.569-0.032,2.293c0.409,0.724,1.149,1.155,1.98,1.155H41
		c0.831,0,1.571-0.432,1.98-1.155c0.409-0.724,0.397-1.581-0.042-2.311c-0.559-0.929-0.629-2.04-0.184-2.901
		c0.456-0.882,1.209-1.607,2.122-2.043c8.171-3.903,13.736-8.294,14.329-17.041C59.249,29.494,59.015,28.839,58.565,28.357z
		 M56,22.605c0,1.82-0.625,3.579-1.768,5H49v-4c0-0.553-0.447-1-1-1s-1,0.447-1,1v4h-3.531c0.081-0.11,0.151-0.226,0.214-0.346
		c0.003-0.005,0.007-0.01,0.01-0.015c0.088-0.17,0.151-0.352,0.202-0.537c0.013-0.046,0.024-0.092,0.034-0.14
		c0.041-0.19,0.07-0.383,0.07-0.581c0-0.89-0.434-1.726-1.16-2.236l-0.23-0.163c0.08-0.005,0.157-0.018,0.236-0.024
		c0.12-0.01,0.24-0.022,0.359-0.037c0.197-0.024,0.392-0.054,0.585-0.089c0.114-0.021,0.229-0.04,0.342-0.065
		c0.208-0.045,0.413-0.101,0.616-0.159c0.091-0.026,0.183-0.047,0.273-0.076c0.285-0.091,0.564-0.192,0.837-0.307
		c0.076-0.032,0.148-0.07,0.222-0.104c0.198-0.089,0.395-0.181,0.586-0.283c0.107-0.057,0.211-0.119,0.315-0.18
		c0.153-0.089,0.305-0.179,0.453-0.276c0.11-0.072,0.218-0.146,0.325-0.222c0.135-0.096,0.268-0.196,0.398-0.298
		c0.107-0.084,0.213-0.167,0.316-0.255c0.123-0.105,0.24-0.215,0.358-0.325c0.101-0.094,0.203-0.187,0.3-0.285
		c0.111-0.113,0.214-0.233,0.319-0.351c0.199-0.223,0.387-0.454,0.566-0.695c0.063-0.085,0.13-0.167,0.191-0.255
		c0.109-0.157,0.209-0.32,0.309-0.482c0.05-0.082,0.102-0.163,0.15-0.247c0.101-0.175,0.194-0.354,0.284-0.535
		c0.035-0.072,0.07-0.143,0.104-0.216c0.093-0.199,0.18-0.4,0.26-0.606c0.017-0.044,0.033-0.09,0.049-0.134
		c0.181-0.487,0.335-0.987,0.439-1.505C54.355,16.957,56,19.644,56,22.605z M42,5.605c4.411,0,8,3.589,8,8
		c0,0.151-0.013,0.299-0.022,0.448c0,0-0.003,0.006-0.003,0.01c-0.059,1.051-0.321,2.044-0.745,2.945
		c-0.004,0.009-0.008,0.018-0.012,0.027c-0.098,0.207-0.206,0.407-0.321,0.604c-0.014,0.024-0.027,0.048-0.041,0.072
		c-0.107,0.179-0.223,0.353-0.344,0.522c-0.026,0.037-0.051,0.074-0.077,0.11c-0.113,0.154-0.234,0.302-0.358,0.447
		c-0.039,0.046-0.077,0.093-0.117,0.138c-0.117,0.132-0.241,0.257-0.367,0.381c-0.052,0.052-0.103,0.104-0.157,0.155
		c-0.12,0.112-0.246,0.217-0.373,0.322c-0.065,0.054-0.129,0.109-0.196,0.16c-0.123,0.094-0.25,0.182-0.378,0.27
		c-0.077,0.053-0.153,0.107-0.233,0.157c-0.125,0.079-0.254,0.15-0.383,0.222c-0.088,0.049-0.176,0.1-0.266,0.146
		c-0.126,0.064-0.256,0.121-0.385,0.178c-0.099,0.044-0.197,0.09-0.298,0.129c-0.127,0.05-0.257,0.093-0.387,0.136
		c-0.109,0.037-0.216,0.075-0.327,0.107c-0.126,0.037-0.256,0.065-0.385,0.095c-0.119,0.028-0.237,0.058-0.358,0.081
		c-0.125,0.023-0.252,0.038-0.378,0.056c-0.129,0.018-0.257,0.037-0.387,0.049c-0.025,0.002-0.051,0.002-0.077,0.004l0-0.001
		c0.002-0.013,0.002-0.025,0.004-0.038c0.033-0.181,0.044-0.364,0.04-0.547c-0.001-0.059-0.008-0.116-0.013-0.175
		c-0.012-0.144-0.036-0.285-0.07-0.425c-0.014-0.056-0.025-0.112-0.043-0.167c-0.059-0.188-0.132-0.373-0.233-0.547
		c-0.445-0.77-1.239-1.277-2.124-1.357l-0.431-0.039c-0.265-0.024-0.489-0.187-0.599-0.417l2.137-2.136
		c0.391-0.391,0.391-1.023,0-1.414s-1.023-0.391-1.414,0l-1.427,1.427c-0.211-0.267-0.459-0.507-0.761-0.682
		c-0.202-0.117-0.417-0.202-0.637-0.263c-0.074-0.021-0.149-0.023-0.224-0.037c-0.15-0.029-0.298-0.056-0.45-0.059
		c-0.019,0-0.038-0.008-0.057-0.008c-0.115,0-0.228,0.022-0.342,0.037c-0.071,0.009-0.142,0.009-0.212,0.023
		c-0.204,0.042-0.404,0.104-0.597,0.193l-0.39,0.181c-0.1,0.046-0.206,0.064-0.313,0.06c-0.006,0-0.011-0.001-0.017-0.001
		c-0.105-0.007-0.21-0.036-0.306-0.089C34.049,14.589,34,14.089,34,13.605C34,9.194,37.588,5.605,42,5.605z M25.666,17.791
		l0.039-0.431c0.021-0.242,0.155-0.451,0.366-0.572c0.21-0.121,0.458-0.134,0.678-0.03l0.394,0.183
		c1.199,0.554,2.625,0.171,3.386-0.908l0.249-0.354c0.281-0.399,0.927-0.396,1.206-0.001l0.249,0.354
		c0.51,0.723,1.318,1.124,2.157,1.149c0.01,0,0.019,0,0.029,0c0.121,0.002,0.243,0,0.364-0.014c0.057-0.006,0.113-0.019,0.17-0.029
		c0.082-0.015,0.163-0.026,0.244-0.048c0.144-0.039,0.286-0.088,0.424-0.152l0.391-0.182c0.221-0.102,0.469-0.091,0.678,0.03
		c0.21,0.122,0.344,0.33,0.365,0.573l0.039,0.429c0.12,1.318,1.163,2.362,2.48,2.48l0.43,0.039c0.243,0.021,0.452,0.155,0.573,0.366
		c0.122,0.21,0.133,0.458,0.031,0.677l-0.184,0.396c-0.008,0.018-0.011,0.034-0.018,0.052c-0.356,0.816-0.282,1.723,0.14,2.457
		c0.006,0.01,0.012,0.021,0.018,0.031c0.054,0.091,0.111,0.178,0.176,0.263c0.035,0.047,0.074,0.09,0.112,0.135
		c0.049,0.056,0.096,0.114,0.15,0.166c0.102,0.101,0.211,0.196,0.331,0.28l0.355,0.251C41.886,25.523,42,25.743,42,25.986
		s-0.114,0.462-0.312,0.602l-0.356,0.25c-0.003,0.002-0.005,0.005-0.009,0.008c-0.13,0.093-0.249,0.198-0.36,0.312
		c-0.044,0.045-0.082,0.096-0.123,0.144c-0.06,0.071-0.119,0.143-0.171,0.22c-0.02,0.029-0.046,0.054-0.065,0.084H27.469
		c0.081-0.11,0.151-0.227,0.215-0.347c0.003-0.005,0.006-0.009,0.009-0.014c0.088-0.171,0.152-0.353,0.203-0.539
		c0.013-0.046,0.023-0.091,0.033-0.137c0.042-0.189,0.07-0.382,0.071-0.579l0-0.002l0,0l0,0c0-0.128-0.028-0.25-0.045-0.375
		c-0.013-0.092-0.011-0.187-0.034-0.277c-0.073-0.298-0.212-0.571-0.378-0.827c-0.188-0.289-0.415-0.554-0.704-0.758l-0.354-0.25
		c-0.291-0.205-0.393-0.588-0.244-0.91l0.183-0.393c0.089-0.192,0.15-0.393,0.192-0.597c0.013-0.061,0.013-0.122,0.021-0.183
		c0.02-0.144,0.035-0.287,0.032-0.431c-0.002-0.075-0.014-0.149-0.022-0.224c-0.014-0.129-0.031-0.257-0.063-0.383
		c-0.021-0.082-0.049-0.16-0.077-0.24c-0.024-0.066-0.036-0.135-0.064-0.2c-0.017-0.039-0.047-0.068-0.066-0.105
		c-0.025-0.051-0.038-0.106-0.066-0.156c-0.053-0.091-0.125-0.166-0.188-0.25c-0.052-0.07-0.098-0.143-0.156-0.208
		c-0.121-0.135-0.259-0.25-0.403-0.357c-0.043-0.032-0.075-0.077-0.12-0.106C25.548,18.454,25.636,18.12,25.666,17.791z
		 M20.122,7.282c0.635-0.902,1.886-1.118,2.787-0.483c0.434,0.306,0.724,0.766,0.815,1.294c0.091,0.529-0.026,1.06-0.332,1.493
		l-3.901,5.536c0,0-0.001,0-0.001,0.001l-1.859,2.637c-0.306,0.435-0.765,0.725-1.293,0.816c-0.527,0.088-1.059-0.026-1.493-0.333
		c-0.002-0.001-0.003-0.003-0.005-0.004c-0.143-0.101-0.263-0.224-0.372-0.354c-0.028-0.033-0.054-0.068-0.08-0.103
		c-0.095-0.131-0.177-0.27-0.238-0.419c-0.004-0.01-0.01-0.018-0.014-0.028c-0.061-0.158-0.095-0.325-0.115-0.495
		c-0.005-0.043-0.007-0.086-0.01-0.129c-0.009-0.17-0.004-0.343,0.032-0.516c0.055-0.262,0.16-0.513,0.318-0.737L20.122,7.282z
		 M5.427,26.837l-0.354-0.249c-0.199-0.14-0.313-0.359-0.313-0.603s0.114-0.463,0.313-0.604l0.352-0.248
		c1.083-0.761,1.465-2.186,0.909-3.39l-0.181-0.39c-0.103-0.221-0.091-0.469,0.03-0.68c0.122-0.21,0.33-0.344,0.573-0.365
		l0.429-0.039c1.318-0.118,2.361-1.161,2.481-2.479l0.039-0.431c0.021-0.242,0.155-0.45,0.365-0.572
		c0.209-0.121,0.458-0.132,0.678-0.03l0.394,0.183c0.286,0.132,0.589,0.209,0.897,0.233c0.003,0.021,0.012,0.042,0.016,0.063
		c0.003,0.018,0.001,0.036,0.004,0.053c0.02,0.114,0.062,0.219,0.091,0.33c0.034,0.129,0.06,0.26,0.106,0.386
		c0.055,0.148,0.131,0.285,0.202,0.425c0.048,0.094,0.085,0.191,0.141,0.281c0.098,0.159,0.218,0.303,0.338,0.447
		c0.051,0.061,0.091,0.128,0.145,0.186c0.184,0.195,0.387,0.375,0.611,0.532c0.197,0.139,0.407,0.253,0.621,0.353
		c0.068,0.031,0.137,0.056,0.207,0.083c0.153,0.061,0.308,0.113,0.467,0.154c0.08,0.021,0.159,0.041,0.241,0.056
		c0.169,0.033,0.34,0.052,0.513,0.063c0.065,0.004,0.128,0.014,0.193,0.015c0.017,0,0.033,0.004,0.05,0.004
		c0.231,0,0.463-0.02,0.695-0.06c1.055-0.184,1.974-0.764,2.587-1.634l1.471-2.088c0.167,0.111,0.296,0.291,0.318,0.537l0.039,0.429
		c0.12,1.318,1.163,2.361,2.48,2.48l0.43,0.039c0.094,0.008,0.176,0.047,0.256,0.086c0.039,0.02,0.078,0.038,0.113,0.065
		c0.054,0.04,0.098,0.092,0.139,0.146c0.026,0.034,0.055,0.065,0.075,0.104c0.048,0.094,0.082,0.193,0.087,0.295
		c0,0.004-0.001,0.01-0.001,0.014c0.004,0.112-0.017,0.226-0.066,0.332l-0.183,0.393c-0.209,0.451-0.285,0.933-0.242,1.4
		c0.001,0.006,0.003,0.012,0.003,0.019c0.015,0.149,0.04,0.296,0.079,0.441c0.161,0.602,0.527,1.148,1.067,1.528l0.243,0.171
		l0.111,0.078C25.886,25.524,26,25.743,26,25.986c0,0.122-0.028,0.237-0.082,0.34c-0.015,0.03-0.047,0.048-0.067,0.076
		c-0.048,0.068-0.094,0.137-0.165,0.187l-0.013,0.009l-0.342,0.24c-0.137,0.097-0.263,0.209-0.379,0.329
		c-0.036,0.037-0.065,0.079-0.098,0.117c-0.076,0.088-0.149,0.178-0.214,0.275c-0.011,0.016-0.026,0.03-0.036,0.046H6.156
		C5.965,27.305,5.718,27.042,5.427,26.837z M44.014,45.39c-1.303,0.622-2.381,1.662-3.037,2.929
		c-0.763,1.474-0.668,3.333,0.257,4.869c0.068,0.114,0.04,0.214,0.003,0.277c-0.036,0.063-0.106,0.14-0.239,0.14H18.21
		c-0.132,0-0.203-0.076-0.239-0.14c-0.036-0.063-0.065-0.163,0.014-0.295c0.915-1.519,1.01-3.378,0.247-4.853
		c-0.655-1.267-1.734-2.307-3.036-2.928C7.441,41.687,2.529,37.824,2.001,30.019c-0.01-0.149,0.062-0.25,0.105-0.297
		c0.05-0.054,0.137-0.117,0.268-0.117h3.146h19.722h16h0.063h13.389h2.143c0.13,0,0.217,0.063,0.268,0.117
		c0.043,0.047,0.115,0.147,0.104,0.297C56.68,37.824,51.768,41.687,44.014,45.39z"/>
	<path d="M37,46.605h-8.707c-0.552,0-1,0.447-1,1s0.448,1,1,1H37c0.552,0,1-0.447,1-1S37.552,46.605,37,46.605z"/>
	<path d="M22,48.605h3.386c0.552,0,1-0.447,1-1s-0.448-1-1-1H22c-0.552,0-1,0.447-1,1S21.447,48.605,22,48.605z"/>
	<path d="M37,49.605H22c-0.552,0-1,0.447-1,1s0.448,1,1,1h15c0.552,0,1-0.447,1-1S37.552,49.605,37,49.605z"/>
	<path d="M39.879,12.898c0.195,0.195,0.451,0.293,0.707,0.293s0.512-0.098,0.707-0.293c0.391-0.391,0.391-1.023,0-1.414
		l-2.829-2.828c-0.391-0.391-1.023-0.391-1.414,0s-0.391,1.023,0,1.414L39.879,12.898z"/>
	<path d="M45.535,18.554c0.195,0.195,0.451,0.293,0.707,0.293s0.512-0.098,0.707-0.293c0.391-0.391,0.39-1.023,0-1.414l-2.829-2.828
		c-0.391-0.391-1.023-0.391-1.414,0s-0.391,1.023,0,1.414L45.535,18.554z"/>
	<path d="M43.414,13.191c0.256,0,0.512-0.098,0.707-0.293l2.829-2.828c0.39-0.391,0.391-1.023,0-1.414
		c-0.391-0.391-1.023-0.391-1.414,0l-2.829,2.828c-0.391,0.391-0.391,1.023,0,1.414C42.902,13.093,43.158,13.191,43.414,13.191z"/>
	<path d="M49,21.605c0,0.553,0.447,1,1,1h4c0.553,0,1-0.447,1-1s-0.447-1-1-1h-4C49.447,20.605,49,21.052,49,21.605z"/>
	<path d="M30.5,22.105c0.256,0,0.512-0.098,0.707-0.293l1.5-1.5c0.391-0.391,0.391-1.023,0-1.414s-1.023-0.391-1.414,0l-1.5,1.5
		c-0.391,0.391-0.391,1.023,0,1.414C29.988,22.007,30.244,22.105,30.5,22.105z"/>
	<path d="M35.293,24.312c0.195,0.195,0.451,0.293,0.707,0.293s0.512-0.098,0.707-0.293c0.391-0.391,0.391-1.023,0-1.414l-1-1
		c-0.391-0.391-1.023-0.391-1.414,0s-0.391,1.023,0,1.414L35.293,24.312z"/>
	<path d="M31.293,23.898l-1,1c-0.391,0.391-0.391,1.023,0,1.414c0.195,0.195,0.451,0.293,0.707,0.293s0.512-0.098,0.707-0.293l1-1
		c0.391-0.391,0.391-1.023,0-1.414S31.683,23.507,31.293,23.898z"/>
</g>
</svg>